# Blender v2.79 (sub 0) OBJ File: 'linkedin.blend'
# www.blender.org
mtllib linkedin.mtl
o Icon_Cube
v -1.241832 -1.061767 0.189884
v -1.061767 -1.241832 0.189884
v -1.061767 -1.061767 0.222086
v -1.228126 -1.130675 0.189884
v -1.189093 -1.189093 0.189884
v -1.228126 -1.061767 0.202207
v -1.211583 -1.132402 0.202516
v -1.179936 -1.179936 0.201875
v -1.165728 -1.165728 0.208476
v -1.061767 -1.228126 0.202207
v -1.061767 -1.189093 0.212654
v -1.130675 -1.228126 0.189884
v -1.132402 -1.211583 0.202516
v -1.128818 -1.179936 0.211017
v -1.130675 -1.061767 0.219635
v -1.189093 -1.061767 0.212654
v -1.061767 -1.130675 0.219635
v -1.132402 -1.132402 0.216677
v -1.179936 -1.128818 0.211017
v -1.241832 -1.061767 -0.189884
v -1.061767 -1.061767 -0.222086
v -1.061767 -1.241832 -0.189884
v -1.228126 -1.061767 -0.202207
v -1.189093 -1.061767 -0.212654
v -1.228126 -1.130675 -0.189884
v -1.211583 -1.132402 -0.202516
v -1.179936 -1.128818 -0.211017
v -1.165728 -1.165728 -0.208476
v -1.061767 -1.130675 -0.219635
v -1.061767 -1.189093 -0.212654
v -1.130675 -1.061767 -0.219635
v -1.132402 -1.132402 -0.216677
v -1.128818 -1.179936 -0.211017
v -1.130675 -1.228126 -0.189884
v -1.189093 -1.189093 -0.189884
v -1.061767 -1.228126 -0.202207
v -1.132402 -1.211583 -0.202516
v -1.179936 -1.179936 -0.201875
v 1.061767 -1.061767 -0.222086
v 1.241833 -1.061767 -0.189884
v 1.061767 -1.241832 -0.189884
v 1.130675 -1.061767 -0.219635
v 1.189093 -1.061767 -0.212654
v 1.061767 -1.130675 -0.219635
v 1.132402 -1.132402 -0.216677
v 1.179936 -1.128818 -0.211017
v 1.165728 -1.165728 -0.208476
v 1.228126 -1.130675 -0.189884
v 1.189093 -1.189093 -0.189884
v 1.228126 -1.061767 -0.202207
v 1.211584 -1.132402 -0.202516
v 1.179936 -1.179936 -0.201875
v 1.061767 -1.228126 -0.202207
v 1.061767 -1.189093 -0.212654
v 1.130675 -1.228126 -0.189884
v 1.132402 -1.211583 -0.202516
v 1.128818 -1.179936 -0.211017
v 1.061766 -1.061767 0.222086
v 1.061766 -1.241832 0.189884
v 1.241832 -1.061767 0.189884
v 1.061766 -1.130675 0.219635
v 1.061766 -1.189093 0.212654
v 1.130675 -1.061767 0.219635
v 1.132401 -1.132402 0.216677
v 1.128818 -1.179936 0.211017
v 1.165727 -1.165728 0.208476
v 1.130675 -1.228126 0.189884
v 1.189092 -1.189093 0.189884
v 1.061766 -1.228126 0.202207
v 1.132401 -1.211583 0.202516
v 1.179935 -1.179936 0.201875
v 1.228125 -1.061767 0.202207
v 1.189092 -1.061767 0.212654
v 1.228125 -1.130675 0.189884
v 1.211583 -1.132402 0.202516
v 1.179935 -1.128818 0.211017
v -1.061767 1.061767 0.222086
v -1.061767 1.241832 0.189884
v -1.241833 1.061767 0.189884
v -1.061767 1.130675 0.219635
v -1.061767 1.189093 0.212654
v -1.130676 1.061767 0.219635
v -1.132402 1.132402 0.216677
v -1.128819 1.179936 0.211017
v -1.165728 1.165728 0.208476
v -1.130675 1.228126 0.189884
v -1.189093 1.189093 0.189884
v -1.061767 1.228126 0.202207
v -1.132402 1.211583 0.202516
v -1.179936 1.179936 0.201875
v -1.228126 1.061767 0.202207
v -1.189093 1.061767 0.212654
v -1.228126 1.130675 0.189884
v -1.211584 1.132402 0.202516
v -1.179936 1.128818 0.211017
v -1.061766 1.061767 -0.222086
v -1.241832 1.061767 -0.189884
v -1.061766 1.241832 -0.189884
v -1.130674 1.061767 -0.219635
v -1.189092 1.061767 -0.212654
v -1.061766 1.130675 -0.219635
v -1.132401 1.132402 -0.216677
v -1.179935 1.128818 -0.211017
v -1.165727 1.165728 -0.208476
v -1.228125 1.130675 -0.189884
v -1.189092 1.189093 -0.189884
v -1.228125 1.061767 -0.202207
v -1.211583 1.132402 -0.202516
v -1.179935 1.179936 -0.201875
v -1.061766 1.228126 -0.202207
v -1.061766 1.189093 -0.212654
v -1.130674 1.228126 -0.189884
v -1.132401 1.211583 -0.202516
v -1.128817 1.179936 -0.211017
v 1.241833 1.061767 -0.189884
v 1.061767 1.061767 -0.222086
v 1.061767 1.241832 -0.189884
v 1.228126 1.061767 -0.202207
v 1.189093 1.061767 -0.212654
v 1.228126 1.130675 -0.189884
v 1.211584 1.132402 -0.202516
v 1.179936 1.128818 -0.211017
v 1.165728 1.165728 -0.208476
v 1.061767 1.130675 -0.219635
v 1.061767 1.189093 -0.212654
v 1.130675 1.061767 -0.219635
v 1.132402 1.132402 -0.216677
v 1.128818 1.179936 -0.211017
v 1.130675 1.228126 -0.189884
v 1.189093 1.189093 -0.189884
v 1.061767 1.228126 -0.202207
v 1.132402 1.211583 -0.202516
v 1.179936 1.179936 -0.201875
v 1.241832 1.061767 0.189884
v 1.061767 1.241832 0.189884
v 1.061767 1.061767 0.222086
v 1.228126 1.130675 0.189884
v 1.189093 1.189093 0.189884
v 1.228126 1.061767 0.202207
v 1.211583 1.132402 0.202516
v 1.179936 1.179936 0.201875
v 1.165728 1.165728 0.208476
v 1.061767 1.228126 0.202207
v 1.061767 1.189093 0.212654
v 1.130675 1.228126 0.189884
v 1.132402 1.211583 0.202516
v 1.128818 1.179936 0.211017
v 1.130675 1.061767 0.219635
v 1.189093 1.061767 0.212654
v 1.061767 1.130675 0.219635
v 1.132402 1.132402 0.216677
v 1.179936 1.128818 0.211017
vt 0.369266 0.369266
vt 0.630734 0.369266
vt 0.630734 0.630734
vt 0.369266 0.630734
vt 0.702599 0.035933
vt 0.964067 0.035933
vt 0.964067 0.297401
vt 0.702599 0.297401
vt 0.297401 0.964067
vt 0.035933 0.964067
vt 0.035933 0.702600
vt 0.297401 0.702599
vt 0.297401 0.369266
vt 0.297401 0.630734
vt 0.035933 0.630734
vt 0.035933 0.369266
vt 0.035933 0.297401
vt 0.035933 0.035933
vt 0.297401 0.035933
vt 0.297401 0.297401
vt 0.630734 0.297401
vt 0.639219 0.297401
vt 0.639431 0.306098
vt 0.630734 0.305885
vt 0.652905 0.297401
vt 0.652905 0.305656
vt 0.638990 0.319572
vt 0.630734 0.319572
vt 0.652905 0.310201
vt 0.694115 0.035933
vt 0.693902 0.027236
vt 0.702599 0.027448
vt 0.680428 0.035933
vt 0.680428 0.027677
vt 0.694343 0.013762
vt 0.702599 0.013762
vt 0.680428 0.023132
vt 0.630734 0.360782
vt 0.639431 0.360569
vt 0.639218 0.369266
vt 0.630734 0.347095
vt 0.638990 0.347095
vt 0.652905 0.361010
vt 0.652905 0.369266
vt 0.643534 0.347095
vt 0.630734 0.035933
vt 0.630734 0.027448
vt 0.639431 0.027236
vt 0.639218 0.035933
vt 0.630734 0.013761
vt 0.638990 0.013761
vt 0.652905 0.027677
vt 0.652905 0.035933
vt 0.643534 0.013761
vt 0.035933 0.305885
vt 0.027236 0.306098
vt 0.027448 0.297401
vt 0.035933 0.319572
vt 0.027677 0.319572
vt 0.013761 0.305657
vt 0.013761 0.297401
vt 0.023132 0.319572
vt 0.964067 0.027448
vt 0.972764 0.027236
vt 0.972552 0.035933
vt 0.964067 0.013761
vt 0.972323 0.013761
vt 0.986238 0.027677
vt 0.986238 0.035933
vt 0.976868 0.013761
vt 0.305885 0.297401
vt 0.306098 0.306098
vt 0.297401 0.305885
vt 0.319572 0.297401
vt 0.319572 0.305656
vt 0.305657 0.319572
vt 0.297401 0.319572
vt 0.319572 0.310201
vt 0.305885 0.964067
vt 0.306098 0.972765
vt 0.297401 0.972552
vt 0.319572 0.964067
vt 0.319572 0.972323
vt 0.305657 0.986239
vt 0.297401 0.986239
vt 0.319572 0.976868
vt 0.972552 0.297401
vt 0.972764 0.306098
vt 0.964067 0.305885
vt 0.986238 0.297401
vt 0.986238 0.305656
vt 0.972323 0.319572
vt 0.964067 0.319572
vt 0.986238 0.310201
vt 0.639218 0.630734
vt 0.639431 0.639431
vt 0.630734 0.639219
vt 0.652905 0.630734
vt 0.652905 0.638990
vt 0.638990 0.652905
vt 0.630734 0.652905
vt 0.652905 0.643535
vt 0.702599 0.305885
vt 0.693902 0.306098
vt 0.694115 0.297401
vt 0.702599 0.319572
vt 0.694344 0.319572
vt 0.680428 0.305656
vt 0.680428 0.297401
vt 0.689799 0.319572
vt 0.297401 0.694115
vt 0.306098 0.693902
vt 0.305885 0.702599
vt 0.297401 0.680428
vt 0.305656 0.680428
vt 0.319572 0.694344
vt 0.319572 0.702600
vt 0.310201 0.680428
vt 0.360781 0.369266
vt 0.360569 0.360569
vt 0.369266 0.360782
vt 0.347095 0.369266
vt 0.347095 0.361010
vt 0.361010 0.347095
vt 0.369266 0.347095
vt 0.347095 0.356466
vt 0.297401 0.360782
vt 0.306098 0.360569
vt 0.305885 0.369266
vt 0.297401 0.347095
vt 0.305656 0.347095
vt 0.319572 0.361010
vt 0.319572 0.369266
vt 0.310201 0.347095
vt 0.369266 0.297401
vt 0.369266 0.305885
vt 0.360569 0.306098
vt 0.360782 0.297401
vt 0.369266 0.319572
vt 0.361010 0.319572
vt 0.347095 0.305656
vt 0.347095 0.297401
vt 0.356466 0.319572
vt 0.027448 0.035933
vt 0.027236 0.027236
vt 0.035933 0.027448
vt 0.013761 0.035933
vt 0.013761 0.027677
vt 0.027677 0.013762
vt 0.035933 0.013762
vt 0.013761 0.023132
vt 0.369266 0.035933
vt 0.360781 0.035933
vt 0.360569 0.027236
vt 0.369266 0.027448
vt 0.347095 0.035933
vt 0.347095 0.027677
vt 0.361010 0.013761
vt 0.369266 0.013761
vt 0.347095 0.023132
vt 0.027448 0.369266
vt 0.027236 0.360569
vt 0.035933 0.360782
vt 0.013761 0.369266
vt 0.013761 0.361010
vt 0.027677 0.347095
vt 0.035933 0.347095
vt 0.013761 0.356466
vt 0.035933 0.972552
vt 0.027236 0.972764
vt 0.027448 0.964067
vt 0.035933 0.986239
vt 0.027677 0.986239
vt 0.013761 0.972323
vt 0.013761 0.964067
vt 0.023132 0.986239
vt 0.297401 0.027448
vt 0.306098 0.027236
vt 0.305885 0.035933
vt 0.297400 0.013761
vt 0.305656 0.013761
vt 0.319572 0.027677
vt 0.319572 0.035933
vt 0.310201 0.013761
vt 0.035933 0.639219
vt 0.027236 0.639431
vt 0.027448 0.630734
vt 0.035933 0.652905
vt 0.027677 0.652905
vt 0.013762 0.638990
vt 0.013762 0.630734
vt 0.023132 0.652905
vt 0.027448 0.702600
vt 0.027236 0.693902
vt 0.035933 0.694115
vt 0.013761 0.702599
vt 0.013761 0.694344
vt 0.027677 0.680428
vt 0.035933 0.680428
vt 0.013761 0.689799
vt 0.305885 0.630734
vt 0.306098 0.639431
vt 0.297401 0.639219
vt 0.319572 0.630734
vt 0.319572 0.638990
vt 0.305656 0.652905
vt 0.297401 0.652905
vt 0.319572 0.643535
vt 0.369266 0.639219
vt 0.360569 0.639431
vt 0.360781 0.630734
vt 0.369266 0.652905
vt 0.361010 0.652905
vt 0.347095 0.638990
vt 0.347095 0.630734
vt 0.356465 0.652905
vn 0.0000 0.0000 1.0000
vn 0.0000 -1.0000 0.0000
vn 1.0000 -0.0000 0.0000
vn 0.0000 1.0000 0.0000
vn -0.0000 -0.0000 -1.0000
vn -0.6351 -0.1360 0.7604
vn -0.5763 -0.3888 0.7188
vn -0.2558 -0.0571 0.9650
vn -0.2479 -0.1705 0.9537
vn -0.1360 -0.6351 0.7604
vn -0.0571 -0.2558 0.9650
vn -0.3888 -0.5763 0.7188
vn -0.1705 -0.2479 0.9537
vn -0.0382 -0.0382 0.9985
vn -0.1197 -0.0396 0.9920
vn -0.0396 -0.1197 0.9920
vn -0.1212 -0.1212 0.9852
vn -0.6351 -0.1360 -0.7604
vn -0.2558 -0.0571 -0.9650
vn -0.5763 -0.3888 -0.7188
vn -0.2479 -0.1705 -0.9537
vn -0.0382 -0.0382 -0.9985
vn -0.0396 -0.1197 -0.9920
vn -0.1197 -0.0396 -0.9920
vn -0.1212 -0.1212 -0.9852
vn -0.1360 -0.6351 -0.7604
vn -0.3888 -0.5763 -0.7188
vn -0.0571 -0.2558 -0.9650
vn -0.1706 -0.2479 -0.9537
vn 0.0382 -0.0382 -0.9985
vn 0.1197 -0.0396 -0.9920
vn 0.0396 -0.1197 -0.9920
vn 0.1212 -0.1212 -0.9852
vn 0.6351 -0.1360 -0.7604
vn 0.5763 -0.3888 -0.7188
vn 0.2558 -0.0571 -0.9650
vn 0.2479 -0.1706 -0.9537
vn 0.1360 -0.6351 -0.7604
vn 0.0571 -0.2558 -0.9650
vn 0.3888 -0.5763 -0.7188
vn 0.1706 -0.2479 -0.9537
vn 0.0382 -0.0382 0.9985
vn 0.0396 -0.1197 0.9920
vn 0.1197 -0.0396 0.9920
vn 0.1212 -0.1212 0.9852
vn 0.1360 -0.6351 0.7604
vn 0.3888 -0.5763 0.7188
vn 0.0571 -0.2558 0.9650
vn 0.1705 -0.2479 0.9537
vn 0.6351 -0.1360 0.7604
vn 0.2558 -0.0571 0.9650
vn 0.5763 -0.3888 0.7188
vn 0.2479 -0.1706 0.9537
vn -0.0382 0.0382 0.9985
vn -0.0396 0.1197 0.9920
vn -0.1197 0.0396 0.9920
vn -0.1212 0.1212 0.9852
vn -0.1360 0.6351 0.7604
vn -0.3888 0.5763 0.7188
vn -0.0571 0.2558 0.9650
vn -0.1706 0.2479 0.9537
vn -0.6351 0.1360 0.7604
vn -0.2558 0.0571 0.9650
vn -0.5763 0.3888 0.7188
vn -0.2479 0.1706 0.9537
vn -0.0382 0.0382 -0.9985
vn -0.1197 0.0396 -0.9920
vn -0.0396 0.1197 -0.9920
vn -0.1212 0.1212 -0.9852
vn -0.6351 0.1360 -0.7604
vn -0.5763 0.3888 -0.7188
vn -0.2558 0.0571 -0.9650
vn -0.2479 0.1705 -0.9537
vn -0.1360 0.6351 -0.7604
vn -0.0571 0.2558 -0.9650
vn -0.3888 0.5763 -0.7188
vn -0.1705 0.2479 -0.9537
vn 0.6351 0.1360 -0.7604
vn 0.2558 0.0571 -0.9650
vn 0.5763 0.3888 -0.7188
vn 0.2479 0.1706 -0.9537
vn 0.0382 0.0382 -0.9985
vn 0.0396 0.1197 -0.9920
vn 0.1197 0.0396 -0.9920
vn 0.1212 0.1212 -0.9852
vn 0.1360 0.6351 -0.7604
vn 0.3888 0.5763 -0.7188
vn 0.0571 0.2558 -0.9650
vn 0.1705 0.2479 -0.9537
vn 0.6351 0.1360 0.7604
vn 0.5763 0.3888 0.7188
vn 0.2558 0.0571 0.9650
vn 0.2479 0.1705 0.9537
vn 0.1360 0.6351 0.7604
vn 0.0571 0.2558 0.9650
vn 0.3888 0.5763 0.7188
vn 0.1705 0.2479 0.9537
vn 0.0382 0.0382 0.9985
vn 0.1197 0.0396 0.9920
vn 0.0396 0.1197 0.9920
vn 0.1212 0.1212 0.9852
vn -0.9808 -0.1951 0.0000
vn -0.8315 -0.5556 0.0000
vn -0.5556 -0.8315 0.0000
vn -0.1951 -0.9808 0.0000
vn 0.0000 -0.6686 0.7436
vn 0.0000 -0.2585 0.9660
vn 0.0000 -0.1187 0.9929
vn 0.0000 -0.0356 0.9994
vn -0.0356 0.0000 0.9994
vn -0.1187 0.0000 0.9929
vn -0.2585 -0.0000 0.9660
vn -0.6686 -0.0000 0.7436
vn -0.0000 -0.0356 -0.9994
vn -0.0000 -0.1187 -0.9929
vn -0.0000 -0.2585 -0.9660
vn -0.0000 -0.6686 -0.7436
vn -0.6686 0.0000 -0.7436
vn -0.2585 0.0000 -0.9660
vn -0.1187 -0.0000 -0.9929
vn -0.0356 -0.0000 -0.9994
vn 0.9808 -0.1951 0.0000
vn 0.8315 -0.5556 0.0000
vn 0.5556 -0.8315 0.0000
vn 0.1951 -0.9808 0.0000
vn 0.0356 0.0000 -0.9994
vn 0.1187 0.0000 -0.9929
vn 0.2585 -0.0000 -0.9660
vn 0.6686 -0.0000 -0.7436
vn 0.6686 -0.0000 0.7436
vn 0.2585 0.0000 0.9660
vn 0.1187 0.0000 0.9929
vn 0.0356 0.0000 0.9994
vn -0.1951 0.9808 -0.0000
vn -0.5556 0.8315 -0.0000
vn -0.8315 0.5556 -0.0000
vn -0.9808 0.1951 -0.0000
vn 0.0000 0.0356 0.9994
vn 0.0000 0.1187 0.9929
vn 0.0000 0.2585 0.9660
vn 0.0000 0.6686 0.7436
vn 0.0000 0.6686 -0.7436
vn -0.0000 0.2585 -0.9660
vn -0.0000 0.1187 -0.9929
vn -0.0000 0.0356 -0.9994
vn 0.1951 0.9808 0.0000
vn 0.5556 0.8315 0.0000
vn 0.8315 0.5556 0.0000
vn 0.9808 0.1951 0.0000
vn -1.0000 0.0000 -0.0000
usemtl Material
s off
f 77/1/1 3/2/1 58/3/1 136/4/1
f 2/5/2 22/6/2 41/7/2 59/8/2
f 40/9/3 115/10/3 134/11/3 60/12/3
f 78/13/4 135/14/4 117/15/4 98/16/4
f 21/17/5 96/18/5 116/19/5 39/20/5
f 1/21/6 4/22/6 7/23/6 6/24/6
f 4/22/7 5/25/7 8/26/7 7/23/7
f 6/24/8 7/23/8 19/27/8 16/28/8
f 7/23/9 8/26/9 9/29/9 19/27/9
f 2/5/10 10/30/10 13/31/10 12/32/10
f 10/30/11 11/33/11 14/34/11 13/31/11
f 12/32/12 13/31/12 8/35/12 5/36/12
f 13/31/13 14/34/13 9/37/13 8/35/13
f 3/2/14 15/38/14 18/39/14 17/40/14
f 15/38/15 16/41/15 19/42/15 18/39/15
f 17/40/16 18/39/16 14/43/16 11/44/16
f 18/39/17 19/42/17 9/45/17 14/43/17
f 20/46/18 23/47/18 26/48/18 25/49/18
f 23/47/19 24/50/19 27/51/19 26/48/19
f 25/49/20 26/48/20 38/52/20 35/53/20
f 26/48/21 27/51/21 28/54/21 38/52/21
f 21/17/22 29/55/22 32/56/22 31/57/22
f 29/55/23 30/58/23 33/59/23 32/56/23
f 31/57/24 32/56/24 27/60/24 24/61/24
f 32/56/25 33/59/25 28/62/25 27/60/25
f 22/6/26 34/63/26 37/64/26 36/65/26
f 34/63/27 35/66/27 38/67/27 37/64/27
f 36/65/28 37/64/28 33/68/28 30/69/28
f 37/64/29 38/67/29 28/70/29 33/68/29
f 39/20/30 42/71/30 45/72/30 44/73/30
f 42/71/31 43/74/31 46/75/31 45/72/31
f 44/73/32 45/72/32 57/76/32 54/77/32
f 45/72/33 46/75/33 47/78/33 57/76/33
f 40/9/34 48/79/34 51/80/34 50/81/34
f 48/79/35 49/82/35 52/83/35 51/80/35
f 50/81/36 51/80/36 46/84/36 43/85/36
f 51/80/37 52/83/37 47/86/37 46/84/37
f 41/7/38 53/87/38 56/88/38 55/89/38
f 53/87/39 54/90/39 57/91/39 56/88/39
f 55/89/40 56/88/40 52/92/40 49/93/40
f 56/88/41 57/91/41 47/94/41 52/92/41
f 58/3/42 61/95/42 64/96/42 63/97/42
f 61/95/43 62/98/43 65/99/43 64/96/43
f 63/97/44 64/96/44 76/100/44 73/101/44
f 64/96/45 65/99/45 66/102/45 76/100/45
f 59/8/46 67/103/46 70/104/46 69/105/46
f 67/103/47 68/106/47 71/107/47 70/104/47
f 69/105/48 70/104/48 65/108/48 62/109/48
f 70/104/49 71/107/49 66/110/49 65/108/49
f 60/12/50 72/111/50 75/112/50 74/113/50
f 72/111/51 73/114/51 76/115/51 75/112/51
f 74/113/52 75/112/52 71/116/52 68/117/52
f 75/112/53 76/115/53 66/118/53 71/116/53
f 77/1/54 80/119/54 83/120/54 82/121/54
f 80/119/55 81/122/55 84/123/55 83/120/55
f 82/121/56 83/120/56 95/124/56 92/125/56
f 83/120/57 84/123/57 85/126/57 95/124/57
f 78/13/58 86/127/58 89/128/58 88/129/58
f 86/127/59 87/130/59 90/131/59 89/128/59
f 88/129/60 89/128/60 84/132/60 81/133/60
f 89/128/61 90/131/61 85/134/61 84/132/61
f 79/135/62 91/136/62 94/137/62 93/138/62
f 91/136/63 92/139/63 95/140/63 94/137/63
f 93/138/64 94/137/64 90/141/64 87/142/64
f 94/137/65 95/140/65 85/143/65 90/141/65
f 96/18/66 99/144/66 102/145/66 101/146/66
f 99/144/67 100/147/67 103/148/67 102/145/67
f 101/146/68 102/145/68 114/149/68 111/150/68
f 102/145/69 103/148/69 104/151/69 114/149/69
f 97/152/70 105/153/70 108/154/70 107/155/70
f 105/153/71 106/156/71 109/157/71 108/154/71
f 107/155/72 108/154/72 103/158/72 100/159/72
f 108/154/73 109/157/73 104/160/73 103/158/73
f 98/16/74 110/161/74 113/162/74 112/163/74
f 110/161/75 111/164/75 114/165/75 113/162/75
f 112/163/76 113/162/76 109/166/76 106/167/76
f 113/162/77 114/165/77 104/168/77 109/166/77
f 115/10/78 118/169/78 121/170/78 120/171/78
f 118/169/79 119/172/79 122/173/79 121/170/79
f 120/171/80 121/170/80 133/174/80 130/175/80
f 121/170/81 122/173/81 123/176/81 133/174/81
f 116/19/82 124/177/82 127/178/82 126/179/82
f 124/177/83 125/180/83 128/181/83 127/178/83
f 126/179/84 127/178/84 122/182/84 119/183/84
f 127/178/85 128/181/85 123/184/85 122/182/85
f 117/15/86 129/185/86 132/186/86 131/187/86
f 129/185/87 130/188/87 133/189/87 132/186/87
f 131/187/88 132/186/88 128/190/88 125/191/88
f 132/186/89 133/189/89 123/192/89 128/190/89
f 134/11/90 137/193/90 140/194/90 139/195/90
f 137/193/91 138/196/91 141/197/91 140/194/91
f 139/195/92 140/194/92 152/198/92 149/199/92
f 140/194/93 141/197/93 142/200/93 152/198/93
f 135/14/94 143/201/94 146/202/94 145/203/94
f 143/201/95 144/204/95 147/205/95 146/202/95
f 145/203/96 146/202/96 141/206/96 138/207/96
f 146/202/97 147/205/97 142/208/97 141/206/97
f 136/4/98 148/209/98 151/210/98 150/211/98
f 148/209/99 149/212/99 152/213/99 151/210/99
f 150/211/100 151/210/100 147/214/100 144/215/100
f 151/210/101 152/213/101 142/216/101 147/214/101
f 1/21/102 20/46/102 25/49/102 4/22/102
f 4/22/103 25/49/103 35/53/103 5/25/103
f 5/36/104 35/66/104 34/63/104 12/32/104
f 12/32/105 34/63/105 22/6/105 2/5/105
f 2/5/106 59/8/106 69/105/106 10/30/106
f 10/30/107 69/105/107 62/109/107 11/33/107
f 11/44/108 62/98/108 61/95/108 17/40/108
f 17/40/109 61/95/109 58/3/109 3/2/109
f 3/2/110 77/1/110 82/121/110 15/38/110
f 15/38/111 82/121/111 92/125/111 16/41/111
f 16/28/112 92/139/112 91/136/112 6/24/112
f 6/24/113 91/136/113 79/135/113 1/21/113
f 21/17/114 39/20/114 44/73/114 29/55/114
f 29/55/115 44/73/115 54/77/115 30/58/115
f 30/69/116 54/90/116 53/87/116 36/65/116
f 36/65/117 53/87/117 41/7/117 22/6/117
f 20/46/118 97/152/118 107/155/118 23/47/118
f 23/47/119 107/155/119 100/159/119 24/50/119
f 24/61/120 100/147/120 99/144/120 31/57/120
f 31/57/121 99/144/121 96/18/121 21/17/121
f 40/9/122 60/12/122 74/113/122 48/79/122
f 48/79/123 74/113/123 68/117/123 49/82/123
f 49/93/124 68/106/124 67/103/124 55/89/124
f 55/89/125 67/103/125 59/8/125 41/7/125
f 39/20/126 116/19/126 126/179/126 42/71/126
f 42/71/127 126/179/127 119/183/127 43/74/127
f 43/85/128 119/172/128 118/169/128 50/81/128
f 50/81/129 118/169/129 115/10/129 40/9/129
f 60/12/130 134/11/130 139/195/130 72/111/130
f 72/111/131 139/195/131 149/199/131 73/114/131
f 73/101/132 149/212/132 148/209/132 63/97/132
f 63/97/133 148/209/133 136/4/133 58/3/133
f 78/13/134 98/16/134 112/163/134 86/127/134
f 86/127/135 112/163/135 106/167/135 87/130/135
f 87/142/136 106/156/136 105/153/136 93/138/136
f 93/138/137 105/153/137 97/152/137 79/135/137
f 77/1/138 136/4/138 150/211/138 80/119/138
f 80/119/139 150/211/139 144/215/139 81/122/139
f 81/133/140 144/204/140 143/201/140 88/129/140
f 88/129/141 143/201/141 135/14/141 78/13/141
f 98/16/142 117/15/142 131/187/142 110/161/142
f 110/161/143 131/187/143 125/191/143 111/164/143
f 111/150/144 125/180/144 124/177/144 101/146/144
f 101/146/145 124/177/145 116/19/145 96/18/145
f 117/15/146 135/14/146 145/203/146 129/185/146
f 129/185/147 145/203/147 138/207/147 130/188/147
f 130/175/148 138/196/148 137/193/148 120/171/148
f 120/171/149 137/193/149 134/11/149 115/10/149
f 1/21/150 79/135/150 97/152/150 20/46/150
